<mxfile host="app.diagrams.net" modified="2023-01-17T07:43:34.597Z" agent="5.0 (Macintosh; Intel Mac OS X 10_15_7) AppleWebKit/537.36 (KHTML, like Gecko) Chrome/109.0.0.0 Safari/537.36" etag="1D_JiJt25b2LVZj3Sj83" version="20.8.5" type="github">
  <diagram name="Page-1" id="b5b7bab2-c9e2-2cf4-8b2a-24fd1a2a6d21">
    <mxGraphModel dx="1376" dy="771" grid="1" gridSize="10" guides="1" tooltips="1" connect="1" arrows="1" fold="1" page="1" pageScale="1" pageWidth="827" pageHeight="1169" background="none" math="0" shadow="0">
      <root>
        <mxCell id="0" />
        <mxCell id="1" parent="0" />
        <mxCell id="0QfYRH727x3DDhWK7JaV-2" value="&lt;p style=&quot;margin:0px;margin-top:4px;text-align:center;&quot;&gt;&lt;i&gt;&amp;lt;&amp;lt;&lt;/i&gt;IBus&lt;i style=&quot;background-color: initial;&quot;&gt;&amp;gt;&amp;gt;&lt;/i&gt;&lt;/p&gt;&lt;p style=&quot;margin:0px;margin-top:4px;text-align:center;&quot;&gt;&lt;b&gt;Interface&lt;/b&gt;&lt;/p&gt;&lt;hr size=&quot;1&quot;&gt;&lt;p style=&quot;margin:0px;margin-left:4px;&quot;&gt;NULL&lt;/p&gt;&lt;hr size=&quot;1&quot;&gt;&lt;p style=&quot;margin:0px;margin-left:4px;&quot;&gt;virtual int initial(const std::string&amp;amp; home_dir,&amp;nbsp;&lt;br style=&quot;border-color: var(--border-color); padding: 0px; margin: 0px;&quot;&gt;&lt;span style=&quot;background-color: rgb(255, 255, 255);&quot;&gt;const std::string&amp;amp; pod_type, const std::string&amp;amp; node_name) = 0;&lt;/span&gt;&lt;br style=&quot;border-color: var(--border-color); padding: 0px; margin: 0px;&quot;&gt;&lt;br style=&quot;border-color: var(--border-color); padding: 0px; margin: 0px;&quot;&gt;&lt;span style=&quot;background-color: rgb(255, 255, 255);&quot;&gt;virtual void release() = 0;&lt;/span&gt;&lt;br&gt;&lt;/p&gt;" style="verticalAlign=top;align=left;overflow=fill;fontSize=12;fontFamily=Helvetica;html=1;" vertex="1" parent="1">
          <mxGeometry x="310" y="140" width="350" height="140" as="geometry" />
        </mxCell>
        <mxCell id="0QfYRH727x3DDhWK7JaV-4" value="CosineBus" style="swimlane;fontStyle=1;align=center;verticalAlign=top;childLayout=stackLayout;horizontal=1;startSize=26;horizontalStack=0;resizeParent=1;resizeParentMax=0;resizeLast=0;collapsible=1;marginBottom=0;labelBackgroundColor=#FFFFFF;fontColor=#000000;" vertex="1" parent="1">
          <mxGeometry x="310" y="420" width="350" height="140" as="geometry" />
        </mxCell>
        <mxCell id="0QfYRH727x3DDhWK7JaV-5" value="+ field: type" style="text;strokeColor=none;fillColor=none;align=left;verticalAlign=top;spacingLeft=4;spacingRight=4;overflow=hidden;rotatable=0;points=[[0,0.5],[1,0.5]];portConstraint=eastwest;labelBackgroundColor=#FFFFFF;fontColor=#000000;" vertex="1" parent="0QfYRH727x3DDhWK7JaV-4">
          <mxGeometry y="26" width="350" height="26" as="geometry" />
        </mxCell>
        <mxCell id="0QfYRH727x3DDhWK7JaV-6" value="" style="line;strokeWidth=1;fillColor=none;align=left;verticalAlign=middle;spacingTop=-1;spacingLeft=3;spacingRight=3;rotatable=0;labelPosition=right;points=[];portConstraint=eastwest;strokeColor=inherit;labelBackgroundColor=#FFFFFF;fontColor=#000000;" vertex="1" parent="0QfYRH727x3DDhWK7JaV-4">
          <mxGeometry y="52" width="350" height="8" as="geometry" />
        </mxCell>
        <mxCell id="0QfYRH727x3DDhWK7JaV-7" value="virtual int initial(const std::string&amp; home_dir,Â &#xa;const std::string&amp; pod_type, const std::string&amp; node_name) = 0;&#xa;&#xa;virtual void release() = 0;" style="text;strokeColor=none;fillColor=none;align=left;verticalAlign=top;spacingLeft=4;spacingRight=4;overflow=hidden;rotatable=0;points=[[0,0.5],[1,0.5]];portConstraint=eastwest;labelBackgroundColor=#FFFFFF;fontColor=#000000;" vertex="1" parent="0QfYRH727x3DDhWK7JaV-4">
          <mxGeometry y="60" width="350" height="80" as="geometry" />
        </mxCell>
        <mxCell id="0QfYRH727x3DDhWK7JaV-10" value="Extends" style="endArrow=block;endSize=16;endFill=0;html=1;rounded=0;fontSize=12;fontColor=#000000;exitX=0.5;exitY=0;exitDx=0;exitDy=0;entryX=0.5;entryY=1;entryDx=0;entryDy=0;" edge="1" parent="1" source="0QfYRH727x3DDhWK7JaV-4" target="0QfYRH727x3DDhWK7JaV-2">
          <mxGeometry width="160" relative="1" as="geometry">
            <mxPoint x="485" y="280" as="sourcePoint" />
            <mxPoint x="490" y="330" as="targetPoint" />
          </mxGeometry>
        </mxCell>
        <mxCell id="0QfYRH727x3DDhWK7JaV-11" value="CosineBusManager" style="swimlane;fontStyle=1;align=center;verticalAlign=top;childLayout=stackLayout;horizontal=1;startSize=26;horizontalStack=0;resizeParent=1;resizeParentMax=0;resizeLast=0;collapsible=1;marginBottom=0;labelBackgroundColor=#FFFFFF;fontColor=#000000;" vertex="1" parent="1">
          <mxGeometry x="760" y="160" width="660" height="310" as="geometry" />
        </mxCell>
        <mxCell id="0QfYRH727x3DDhWK7JaV-12" value="    std::mutex bus_lock_;&#xa;    std::atomic_bool initialised_ = { false };&#xa;    std::string node_name_;&#xa;    CosineBusConfig bus_config_;&#xa;    std::vector&lt;std::shared_ptr&lt;Subscriber&lt;nio::cosine::bus::RawMessage&gt;&gt;&gt; subscriber_ptrs_;&#xa;    COSINE_DECLARE_SINGLETON(CosineBusManager);" style="text;strokeColor=none;fillColor=none;align=left;verticalAlign=top;spacingLeft=4;spacingRight=4;overflow=hidden;rotatable=0;points=[[0,0.5],[1,0.5]];portConstraint=eastwest;labelBackgroundColor=#FFFFFF;fontColor=#000000;" vertex="1" parent="0QfYRH727x3DDhWK7JaV-11">
          <mxGeometry y="26" width="660" height="104" as="geometry" />
        </mxCell>
        <mxCell id="0QfYRH727x3DDhWK7JaV-13" value="" style="line;strokeWidth=1;fillColor=none;align=left;verticalAlign=middle;spacingTop=-1;spacingLeft=3;spacingRight=3;rotatable=0;labelPosition=right;points=[];portConstraint=eastwest;strokeColor=inherit;labelBackgroundColor=#FFFFFF;fontColor=#000000;" vertex="1" parent="0QfYRH727x3DDhWK7JaV-11">
          <mxGeometry y="130" width="660" height="8" as="geometry" />
        </mxCell>
        <mxCell id="0QfYRH727x3DDhWK7JaV-14" value="int initial(const std::string&amp; config_file, const std::string&amp; node_name = &quot;&quot;)&#xa;std::shared_ptr&lt;Publisher&lt;MessageT&gt;&gt; createPublisher(const std::string&amp; topic_name)&#xa; template &lt;class MessageT, class F,&#xa;              typename onReceiveCB = std::function&lt;void(const std::shared_ptr&lt;MessageT&gt;&amp; msg, size_t size)&gt;,&#xa;              typename std::enable_if_t&lt;!std::is_convertible&lt;F, onReceiveCB&gt;::value, bool&gt; = true&gt;&#xa;    std::shared_ptr&lt;Subscriber&lt;MessageT&gt;&gt; createSubscriber(const std::string&amp; topic_name, const F&amp; cb)&#xa;template &lt;class MessageT, class F,&#xa;              typename onReceiveCB = std::function&lt;void(const std::shared_ptr&lt;MessageT&gt;&amp; msg, size_t size)&gt;,&#xa;              typename std::enable_if_t&lt;std::is_convertible&lt;F, onReceiveCB&gt;::value, bool&gt; = true&gt;&#xa;    std::shared_ptr&lt;Subscriber&lt;MessageT&gt;&gt; createSubscriber(const std::string&amp; topic_name, const F&amp; cb)" style="text;strokeColor=none;fillColor=none;align=left;verticalAlign=top;spacingLeft=4;spacingRight=4;overflow=hidden;rotatable=0;points=[[0,0.5],[1,0.5]];portConstraint=eastwest;labelBackgroundColor=#FFFFFF;fontColor=#000000;" vertex="1" parent="0QfYRH727x3DDhWK7JaV-11">
          <mxGeometry y="138" width="660" height="172" as="geometry" />
        </mxCell>
        <mxCell id="0QfYRH727x3DDhWK7JaV-15" value="PublisherFactory" style="swimlane;fontStyle=1;align=center;verticalAlign=top;childLayout=stackLayout;horizontal=1;startSize=26;horizontalStack=0;resizeParent=1;resizeParentMax=0;resizeLast=0;collapsible=1;marginBottom=0;labelBackgroundColor=#FFFFFF;fontColor=#000000;" vertex="1" parent="1">
          <mxGeometry x="1460" y="170" width="660" height="310" as="geometry" />
        </mxCell>
        <mxCell id="0QfYRH727x3DDhWK7JaV-16" value="    std::mutex bus_lock_;&#xa;    std::atomic_bool initialised_ = { false };&#xa;    std::string node_name_;&#xa;    CosineBusConfig bus_config_;&#xa;    std::vector&lt;std::shared_ptr&lt;Subscriber&lt;nio::cosine::bus::RawMessage&gt;&gt;&gt; subscriber_ptrs_;&#xa;    COSINE_DECLARE_SINGLETON(CosineBusManager);" style="text;strokeColor=none;fillColor=none;align=left;verticalAlign=top;spacingLeft=4;spacingRight=4;overflow=hidden;rotatable=0;points=[[0,0.5],[1,0.5]];portConstraint=eastwest;labelBackgroundColor=#FFFFFF;fontColor=#000000;" vertex="1" parent="0QfYRH727x3DDhWK7JaV-15">
          <mxGeometry y="26" width="660" height="104" as="geometry" />
        </mxCell>
        <mxCell id="0QfYRH727x3DDhWK7JaV-17" value="" style="line;strokeWidth=1;fillColor=none;align=left;verticalAlign=middle;spacingTop=-1;spacingLeft=3;spacingRight=3;rotatable=0;labelPosition=right;points=[];portConstraint=eastwest;strokeColor=inherit;labelBackgroundColor=#FFFFFF;fontColor=#000000;" vertex="1" parent="0QfYRH727x3DDhWK7JaV-15">
          <mxGeometry y="130" width="660" height="8" as="geometry" />
        </mxCell>
        <mxCell id="0QfYRH727x3DDhWK7JaV-19" value="Use" style="endArrow=open;endSize=12;dashed=1;html=1;rounded=0;fontSize=12;fontColor=#000000;entryX=-0.002;entryY=0.093;entryDx=0;entryDy=0;entryPerimeter=0;" edge="1" parent="0QfYRH727x3DDhWK7JaV-15" target="0QfYRH727x3DDhWK7JaV-18">
          <mxGeometry width="160" relative="1" as="geometry">
            <mxPoint x="-40" y="200" as="sourcePoint" />
            <mxPoint x="120" y="200" as="targetPoint" />
          </mxGeometry>
        </mxCell>
        <mxCell id="0QfYRH727x3DDhWK7JaV-18" value="auto pub_ptr = pub_factory::Instance()-&gt;createPublisherObject(middleware_name);" style="text;strokeColor=none;fillColor=none;align=left;verticalAlign=top;spacingLeft=4;spacingRight=4;overflow=hidden;rotatable=0;points=[[0,0.5],[1,0.5]];portConstraint=eastwest;labelBackgroundColor=#FFFFFF;fontColor=#000000;" vertex="1" parent="0QfYRH727x3DDhWK7JaV-15">
          <mxGeometry y="138" width="660" height="172" as="geometry" />
        </mxCell>
        <mxCell id="0QfYRH727x3DDhWK7JaV-21" value="SubscriberFactory" style="swimlane;fontStyle=1;align=center;verticalAlign=top;childLayout=stackLayout;horizontal=1;startSize=26;horizontalStack=0;resizeParent=1;resizeParentMax=0;resizeLast=0;collapsible=1;marginBottom=0;labelBackgroundColor=#FFFFFF;fontColor=#000000;" vertex="1" parent="1">
          <mxGeometry x="1460" y="530" width="660" height="310" as="geometry" />
        </mxCell>
        <mxCell id="0QfYRH727x3DDhWK7JaV-22" value="    std::mutex bus_lock_;&#xa;    std::atomic_bool initialised_ = { false };&#xa;    std::string node_name_;&#xa;    CosineBusConfig bus_config_;&#xa;    std::vector&lt;std::shared_ptr&lt;Subscriber&lt;nio::cosine::bus::RawMessage&gt;&gt;&gt; subscriber_ptrs_;&#xa;    COSINE_DECLARE_SINGLETON(CosineBusManager);" style="text;strokeColor=none;fillColor=none;align=left;verticalAlign=top;spacingLeft=4;spacingRight=4;overflow=hidden;rotatable=0;points=[[0,0.5],[1,0.5]];portConstraint=eastwest;labelBackgroundColor=#FFFFFF;fontColor=#000000;" vertex="1" parent="0QfYRH727x3DDhWK7JaV-21">
          <mxGeometry y="26" width="660" height="104" as="geometry" />
        </mxCell>
        <mxCell id="0QfYRH727x3DDhWK7JaV-23" value="" style="line;strokeWidth=1;fillColor=none;align=left;verticalAlign=middle;spacingTop=-1;spacingLeft=3;spacingRight=3;rotatable=0;labelPosition=right;points=[];portConstraint=eastwest;strokeColor=inherit;labelBackgroundColor=#FFFFFF;fontColor=#000000;" vertex="1" parent="0QfYRH727x3DDhWK7JaV-21">
          <mxGeometry y="130" width="660" height="8" as="geometry" />
        </mxCell>
        <mxCell id="0QfYRH727x3DDhWK7JaV-25" value="&lt;meta charset=&quot;utf-8&quot;&gt;&lt;div style=&quot;color: rgb(212, 212, 212); background-color: rgb(30, 30, 30); font-family: Menlo, Monaco, &amp;quot;Courier New&amp;quot;, monospace; font-weight: normal; font-size: 16px; line-height: 24px;&quot;&gt;&lt;div&gt;&lt;span style=&quot;color: #569cd6;&quot;&gt;auto&lt;/span&gt;&lt;span style=&quot;color: #d4d4d4;&quot;&gt; &lt;/span&gt;&lt;span style=&quot;color: #9cdcfe;&quot;&gt;sub_ptr&lt;/span&gt;&lt;span style=&quot;color: #d4d4d4;&quot;&gt; = &lt;/span&gt;&lt;span style=&quot;color: #4ec9b0;&quot;&gt;sub_factory&lt;/span&gt;&lt;span style=&quot;color: #d4d4d4;&quot;&gt;::&lt;/span&gt;&lt;span style=&quot;color: #dcdcaa;&quot;&gt;Instance&lt;/span&gt;&lt;span style=&quot;color: #d4d4d4;&quot;&gt;()-&amp;gt;&lt;/span&gt;&lt;span style=&quot;color: #dcdcaa;&quot;&gt;createSubscriberObject&lt;/span&gt;&lt;span style=&quot;color: #d4d4d4;&quot;&gt;(&lt;/span&gt;&lt;span style=&quot;color: #9cdcfe;&quot;&gt;middleware_name&lt;/span&gt;&lt;span style=&quot;color: #d4d4d4;&quot;&gt;)&lt;/span&gt;&lt;/div&gt;&lt;/div&gt;" style="text;strokeColor=none;fillColor=none;align=left;verticalAlign=top;spacingLeft=4;spacingRight=4;overflow=hidden;rotatable=0;points=[[0,0.5],[1,0.5]];portConstraint=eastwest;labelBackgroundColor=#FFFFFF;fontColor=#000000;" vertex="1" parent="0QfYRH727x3DDhWK7JaV-21">
          <mxGeometry y="138" width="660" height="172" as="geometry" />
        </mxCell>
        <mxCell id="0QfYRH727x3DDhWK7JaV-24" value="Use" style="endArrow=open;endSize=12;dashed=1;html=1;rounded=0;fontSize=12;fontColor=#000000;entryX=-0.002;entryY=0.093;entryDx=0;entryDy=0;entryPerimeter=0;exitX=0.998;exitY=0.733;exitDx=0;exitDy=0;exitPerimeter=0;" edge="1" parent="1" target="0QfYRH727x3DDhWK7JaV-25" source="0QfYRH727x3DDhWK7JaV-14">
          <mxGeometry width="160" relative="1" as="geometry">
            <mxPoint x="1340" y="550" as="sourcePoint" />
            <mxPoint x="1580" y="820" as="targetPoint" />
          </mxGeometry>
        </mxCell>
      </root>
    </mxGraphModel>
  </diagram>
</mxfile>
